<?xml version="1.0" encoding="UTF-8"?><svg id="Layer_1" xmlns="http://www.w3.org/2000/svg" viewBox="0 0 96 96"><defs><style>.cls-1{fill:#002736;}.cls-2{fill:#fff;}.cls-3{stroke-linecap:round;stroke-width:9.74px;}.cls-3,.cls-4{fill:none;stroke:#fff;stroke-miterlimit:10;}.cls-4{stroke-width:6.82px;}</style></defs><rect class="cls-1" x="-3.99" y="-3.99" width="103.99" height="103.99"/><circle class="cls-4" cx="44.42" cy="44.07" r="40.11"/><line class="cls-3" x1="72.9" y1="75.54" x2="84.53" y2="89.4"/><path class="cls-2" d="m23.17,67.31c-1.31,0-2.54-.78-3.07-2.06-1.55-3.8-4.69-13.69-.36-23.44l6.7-14.71c1.9-4.16,5.32-7.29,9.63-8.82,4.31-1.52,8.94-1.24,13.04.81,7.94,3.97,11.35,13.9,7.59,22.15l-6.56,14.39c-.76,1.66-2.72,2.4-4.39,1.64-1.66-.76-2.4-2.72-1.64-4.39l6.56-14.39c2.3-5.04.27-11.09-4.52-13.48-2.48-1.24-5.27-1.41-7.87-.49-2.6.92-4.67,2.81-5.81,5.32l-6.69,14.68c-3.28,7.4-.78,15.21.45,18.22.69,1.69-.12,3.63-1.82,4.32-.41.17-.83.25-1.25.25Z"/><path class="cls-2" d="m47.19,70.37c-2.55,0-5.09-.59-7.46-1.77-7.94-3.97-11.35-13.9-7.59-22.15l6.56-14.39c.76-1.66,2.72-2.4,4.39-1.64,1.66.76,2.4,2.72,1.64,4.39l-6.56,14.39c-2.3,5.04-.27,11.09,4.52,13.48,2.48,1.24,5.27,1.41,7.87.49,2.6-.92,4.67-2.81,5.81-5.32l6.69-14.68c3.28-7.4.78-15.21-.45-18.22-.69-1.69.12-3.63,1.82-4.32,1.69-.69,3.62.12,4.32,1.81,1.55,3.8,4.69,13.69.36,23.44l-6.7,14.71c-1.9,4.16-5.31,7.29-9.63,8.82-1.82.65-3.71.97-5.58.97Z"/></svg>